<?xml version="1.0" encoding="utf-8"?>
<!-- Generator: Adobe Illustrator 18.0.0, SVG Export Plug-In . SVG Version: 6.00 Build 0)  -->
<!DOCTYPE svg PUBLIC "-//W3C//DTD SVG 1.1//EN" "http://www.w3.org/Graphics/SVG/1.1/DTD/svg11.dtd">
<svg version="1.1" id="Livello_1" xmlns="http://www.w3.org/2000/svg" xmlns:xlink="http://www.w3.org/1999/xlink" x="0px" y="0px"
	 viewBox="0 0 841.9 595.3" enable-background="new 0 0 841.9 595.3" xml:space="preserve">
<g>
	<path d="M212.5,288.8l-0.6-0.6c-6.7-6.4-15.3-10-24.4-10c-9.4,0-18.3,3.6-25,10.5l-57.7,58.5c-13.3,13.9-13.3,35.8,0.6,49.4
		l0.6,0.6c6.7,6.4,15.3,10,24.4,10c9.4,0,18.3-3.6,25-10.5l57.7-58.5C226.6,324.3,226.4,302.1,212.5,288.8z"/>
	<path d="M283.5,340.9l-0.6-0.6c-6.7-6.4-15.3-10-24.4-10c-9.4,0-18.3,3.6-25,10.5l-57.7,58.5c-13.3,13.9-13.3,35.8,0.6,49.4
		l0.6,0.6c6.7,6.4,15.3,10,24.4,10c9.4,0,18.3-3.6,25-10.5l57.7-58.5C297.4,376.4,297.1,354.2,283.5,340.9z"/>
	<path d="M358.9,386.9l-0.6-0.6c-6.7-6.4-15.3-10-24.4-10c-9.4,0-18.3,3.6-25,10.5l-57.7,58.5c-13.3,13.9-13.3,35.8,0.6,49.4
		l0.6,0.6c6.7,6.4,15.3,10,24.4,10c9.4,0,18.3-3.6,25-10.5l57.7-58.5C372.8,422.4,372.5,400.2,358.9,386.9z"/>
	<path d="M429.6,437.1l-0.6-0.6c-6.7-6.4-15.3-10-24.4-10c-9.4,0-18.3,3.6-25,10.5L322,495.6c-13.6,13.9-13.3,35.8,0.6,49.4l0.6,0.6
		c6.7,6.4,15.3,10,24.4,10c9.4,0,18.3-3.6,25-10.5l57.7-58.5C443.8,472.6,443.5,450.4,429.6,437.1z"/>
	<path d="M491.7,182.3c-61,57.7-108.4,79.3-110.4,80.4l-0.3,0.3c-9.2,2.8-20,4.4-31.3,4.4c-14.4,0-26.3-2.5-32.4-4.4
		c-11.9-4.2-31.9-23.6-40.8-39.4c-8.9-16.1-1.1-40.8-0.8-41.6l0.3-0.8L410.2,54.7c-6.4-6.4-19.1-9.7-38-9.7
		c-51.3,0-128.7,24.7-133.1,26.1c-5.8,2.5-14.4,3.9-25.2,3.9c-19.4,0-40.5-4.2-43.8-4.7l0,0c-11.4,0-41-17.7-46-20.8
		c-5-1.7-9.4-2.5-13.6-2.5c-11.4,0-16.9,6.4-17.7,7.8L28.1,202.3C7.9,240.5,6.5,251.6,6.5,254.4C42,263,89.1,314,100.8,327
		l67.4-65.7l1.1-0.3c5.8-1.1,11.4-1.9,16.4-1.9c41.3,0,53,38.3,55.5,50.2c3.3-0.3,6.7-0.6,10-0.6c49.1,0,59.1,39.1,61.3,52.7
		c6.9-1.4,13.3-1.9,19.4-1.9c44.9,0,55.2,37.7,57.4,50.5c23.6-3.6,41.9,1.4,54.1,15c19.4,21.4,16.4,55.7,16.1,57.1v1.4l-66.5,67.7
		c9.4,5,18,7.5,26.3,7.5c33,0,47.4-40.5,47.4-41l1.1-3.1l3.1,0.6c5.5,1.1,10.8,1.4,15.5,1.4c44.4,0,46.9-42.1,46.9-43.8l0.3-4.7
		l4.4,1.1c8.9,2.2,17.2,3.6,25,3.6c46.3,0,51-43.5,51.3-45.5l0.3-4.2l4.2,0.8c6.9,1.4,13.3,1.9,19.1,1.9c15.5,0,27.2-4.7,34.7-13.6
		c14.4-17.5,9.2-46.3,8.9-48C667.8,315.7,513.4,198.6,491.7,182.3z"/>
	<path d="M752.7,66.1v-0.6c-3.9-18.3-15-21.1-21.4-21.1c-0.6,0-1.1,0-1.7,0C695.5,71.1,658.4,75,639.3,75c-7.2,0-11.9-0.6-12.8-0.6
		c-34.1-3.3-76-17.7-77.9-18.3l-0.6-0.3c-26.1-12.8-48.2-19.1-66-19.1c-18,0-25,6.7-25,6.9c-76.8,82.4-148.6,137-156.7,143.1
		c-13,28.8,21.1,52.4,25.5,55.5c9.2,2.2,18,3.3,25.8,3.3c13,0,19.4-3.3,19.4-3.3l0.8-0.6h1.4c20,0,92.3-60.4,118.4-83.5l1.9-1.7
		l2.2,1.1c87.1,42.7,197.2,170.8,203.5,178c6.1,4.7,11.6,6.9,16.9,6.9c5.8,0,8.9-3.3,9.2-3.3l0.3-0.3l89-74.3l0.6-0.3
		c10-3.6,16.4-8.6,18.9-15c2.8-7.2,0-13.9-0.3-13.9L752.7,66.1z"/>
</g>
</svg>
