<?xml version="1.0" encoding="utf-8"?>
<!-- Generator: Adobe Illustrator 18.0.0, SVG Export Plug-In . SVG Version: 6.00 Build 0)  -->
<!DOCTYPE svg PUBLIC "-//W3C//DTD SVG 1.1//EN" "http://www.w3.org/Graphics/SVG/1.1/DTD/svg11.dtd">
<svg version="1.1" id="Livello_1" xmlns="http://www.w3.org/2000/svg" xmlns:xlink="http://www.w3.org/1999/xlink" x="0px" y="0px"
	 viewBox="0 0 841.9 595.3" enable-background="new 0 0 841.9 595.3" xml:space="preserve">
<path d="M299.9,165.4l69.3,17.2c1.4,0.4,2.9,0.5,4.3,0.5c4.9,0,9.8-2,13.2-5.8l29.6-31.9l70.6,71.2v49.1
	c17.1,6.5,38.3,15.1,59.8,25.4V174.9c0-4.8-1.6-8.8-4.9-12.1l-79.6-79.1c-5.1-5.5-11.3-8.2-18.7-8.2c-7.7,0-14.6,3.3-19.7,8.8l0,0.1
	c-0.1,0.1-56.4,60.6-56.4,60.6l-59-14.6c-9.7-2.4-19.5,3.5-21.9,13.2C284.3,153.3,290.2,163,299.9,165.4z"/>
<g>
	<path d="M482.5,448.8c25.7-8.3,33.5-8.9,60.9,0c24.8,8.1,35.9,8.8,58,2.1c13.4-25.5,27.1-55,26.7-67.2
		c-1.5-53.4-136.1-100.6-170.8-111.8V455C464.5,454.2,472.4,452.1,482.5,448.8z"/>
	<path d="M356.9,448.8c26.1-8.6,34.8-8.6,60.9,0c9.8,3.3,17.5,5.3,24.5,6.2V271.5c-32.5,10.5-170.5,58.1-172,112.2
		c-0.4,12.1,13.1,41.2,26.4,66.5C320.7,457.7,331.6,457.2,356.9,448.8z"/>
</g>
<g>
	<path d="M669.5,544.3c-26-8.6-34.8-8.6-60.8,0c-26.8,8.9-37.5,8.9-64.6,0c-27.4-8.9-35.2-8.3-60.9,0c-27.3,8.9-37.9,8.9-64.6,0
		c-26.1-8.6-34.8-8.6-60.9,0c-26.8,8.9-37.4,8.9-64.6,0c-13.2-4.3-23.6-6.5-30.7-6.5c-6.7,0-16.9,2.2-30.1,6.5
		c-12.4,4.1-20.5,5.9-29.9,7.3v39.1l0.1,1.6c4.6-2.5,14.9-4.7,28.2-9c27.9-9.1,37.9-8.6,64.3,0c25.8,8.4,33.6,8.9,60.9,0
		c27.1-8.9,37.7-8.9,65,0c27.3,8.9,35.1,8.4,60.9,0c26.4-8.7,36.2-9.2,64.3,0c25.6,8.4,33.5,8.9,60.9,0c27.2-8.9,37.8-8.9,64.6,0
		c11.5,3.8,20.8,6,27.8,6.4v-38.6C692.8,551.6,682.9,548.7,669.5,544.3z"/>
	<path d="M669.5,476.6c-26-8.6-34.8-8.6-60.8,0c-26.8,8.9-37.5,8.9-64.6,0c-27.4-8.9-35.2-8.3-60.9,0c-27.3,8.9-37.9,8.9-64.6,0
		c-26.1-8.6-34.8-8.6-60.9,0c-26.8,8.9-37.4,8.9-64.6,0c-13.2-4.3-23.6-6.5-30.7-6.5c-6.7,0-16.9,2.2-30.1,6.5
		c-12.4,4.1-22.3,5.5-29.9,7.4v39.1l0.1,1.6c4.6-2.5,14.9-4.7,28.2-9c27.9-9.1,37.9-8.6,64.3,0c25.8,8.4,33.6,8.9,60.9,0
		c27.1-8.9,37.7-8.9,65,0c27.3,8.9,35.1,8.4,60.9,0c26.4-8.7,36.2-9.2,64.3,0c25.6,8.4,33.5,8.9,60.9,0c27.2-8.9,37.8-8.9,64.6,0
		c11.5,3.8,20.8,6,27.8,6.4v-37.6C691.9,483,682.9,481.1,669.5,476.6z"/>
</g>
<path d="M394.2,75.9c-19.7-3.9-32.5-23.3-28.5-43.3c4-20,23.3-32.9,43-28.9c19.7,4,32.5,23.3,28.5,43.2
	C433.2,66.8,413.9,79.8,394.2,75.9"/>
<path d="M220.5,385.9c-5.8,0-10.5-4.7-10.5-10.5c0-5.8,4.8-10.5,10.5-10.5c5.8,0,10.5,4.8,10.5,10.5
	C231,381.2,226.4,385.9,220.5,385.9L220.5,385.9z"/>
<path d="M220.5,354.6c-5.8,0-10.5-4.8-10.5-10.5c0-5.8,4.8-10.5,10.5-10.5c5.8,0,10.5,4.7,10.5,10.5
	C231,349.8,226.4,354.6,220.5,354.6L220.5,354.6z"/>
<path d="M220.5,323.3c-5.8,0-10.5-4.7-10.5-10.5c0-5.8,4.8-10.5,10.5-10.5c5.8,0,10.5,4.7,10.5,10.5
	C231,318.6,226.4,323.3,220.5,323.3L220.5,323.3z"/>
<path d="M220.6,292.1c-0.4,0-0.8-0.1-1.3-0.1c-2.8-0.4-5.3-1.7-7-4c-1.7-2.2-2.5-5-2.2-7.8c0.7-5.7,6-9.9,11.8-9.1
	c2.8,0.4,5.2,1.7,7,4c1.7,2.2,2.5,5,2.2,7.8C230.4,288.1,225.9,292.1,220.6,292.1L220.6,292.1z"/>
<path d="M232.6,263.7c-2.6,0-5.1-1-7-2.7c-2.1-1.9-3.3-4.5-3.5-7.3c-0.2-2.8,0.8-5.5,2.6-7.6c3.7-4.1,10.7-4.6,14.9-0.8
	c2,1.9,3.3,4.5,3.5,7.3c0.1,2.8-0.8,5.5-2.7,7.6C238.4,262.4,235.5,263.7,232.6,263.7L232.6,263.7z"/>
<path d="M186.8,333.2c-5.8,0-10.5-4.7-10.5-10.5c0-5.8,4.8-10.5,10.5-10.5c5.8,0,10.5,4.8,10.5,10.5
	C197.4,328.5,192.7,333.2,186.8,333.2L186.8,333.2z"/>
<path d="M186.8,302c-5.8,0-10.5-4.8-10.5-10.5c0-5.8,4.8-10.5,10.5-10.5c5.8,0,10.5,4.7,10.5,10.5C197.4,297.2,192.7,302,186.8,302
	L186.8,302z"/>
<path d="M188.8,270.9c-0.8,0-1.7-0.1-2.6-0.4c-5.6-1.4-9-7.2-7.6-12.8c1.4-5.5,7.2-9.1,12.8-7.6c2.7,0.7,5,2.3,6.4,4.8
	c1.4,2.4,1.9,5.2,1.2,7.9c-0.1,0.1-0.1,0.1-0.1,0.2C197.7,267.7,193.6,270.9,188.8,270.9L188.8,270.9z"/>
<path d="M202.2,242.8c-2.4,0-4.8-0.8-6.6-2.3c-2.2-1.7-3.6-4.3-3.9-7.1c-0.3-2.8,0.5-5.5,2.2-7.7c3.5-4.4,10.4-5.2,14.8-1.6
	c2.2,1.7,3.6,4.2,3.9,7c0.3,2.7-0.5,5.4-2.2,7.6c0,0.1-0.1,0.1-0.1,0.2C208.4,241.3,205.4,242.8,202.2,242.8L202.2,242.8z"/>
<g>
	<path d="M327.3,187.7l-31-7.7c-8.6-2.1-15.8-7.5-20.4-15s-5.9-16.5-3.8-25c2.3-9.4,8.5-16.9,16.5-21.2l-102.1,29.5l34.9,52.3
		c-1.6,0.5-3.1,1.3-4.4,2.5c-4.1,4.1-4.1,10.8,0,14.9c2,2,4.6,3.1,7.4,3.1c2.8,0,5.5-1.1,7.5-3.1c0.2-0.2,0.4-0.5,0.6-0.7l29.6,44.4
		L327.3,187.7z"/>
</g>
</svg>
