<?xml version="1.0" encoding="utf-8"?>
<!-- Generator: Adobe Illustrator 18.0.0, SVG Export Plug-In . SVG Version: 6.00 Build 0)  -->
<!DOCTYPE svg PUBLIC "-//W3C//DTD SVG 1.1//EN" "http://www.w3.org/Graphics/SVG/1.1/DTD/svg11.dtd">
<svg version="1.1"
	 id="Livello_1" xmlns:sodipodi="http://sodipodi.sourceforge.net/DTD/sodipodi-0.dtd" xmlns:rdf="http://www.w3.org/1999/02/22-rdf-syntax-ns#" xmlns:dc="http://purl.org/dc/elements/1.1/" xmlns:cc="http://creativecommons.org/ns#" xmlns:inkscape="http://www.inkscape.org/namespaces/inkscape" xmlns:svg="http://www.w3.org/2000/svg"
	 xmlns="http://www.w3.org/2000/svg" xmlns:xlink="http://www.w3.org/1999/xlink" x="0px" y="0px" viewBox="0 0 841.9 595.3"
	 enable-background="new 0 0 841.9 595.3" xml:space="preserve">
<g>
	<path d="M125.7,46.8V593H718l-2.7-546.2l-82.2-0.2V86h-70.7V46.6H279.2V86h-70.7V46.6L125.7,46.8z M255.6,239.2h-95.5v-95h95.5
		V239.2z M362.8,239.5h-95.5v-95h95.5V239.5z M469,239.4h-95.5v-95H469V239.4z M575.6,239.7h-95.5v-95h95.5V239.7z M682.4,239.4H587
		v-95h95.5V239.4z M256,345.8h-95.5v-95H256V345.8z M362.6,345.5h-95.5v-95h95.5V345.5z M468.8,345.5h-95.5v-95h95.5V345.5z
		 M575.8,345.8h-95.5v-95h95.5V345.8z M256.8,452.9h-95.5v-95h95.5V452.9z M362.9,452.6h-95.5v-95h95.5V452.6z M468.9,452.6h-95.5
		v-95h95.5V452.6z M575.9,452.6h-95.5v-95h95.5V452.6z M682.2,345.4h-95.5v-95h95.5V345.4z M682.1,452.8h-95.5v-95h95.5V452.8z
		 M255.8,558.1h-95.5v-95h95.5V558.1z M362.8,558.1h-95.5v-95h95.5V558.1z M469,558.3h-95.5v-95H469V558.3z M576,558.3h-95.5v-95
		H576V558.3z M682.1,558h-95.5v-95h95.5V558z"/>
</g>
<g display="none">
	<path display="inline" d="M268.4,253.2h309.6v74.2H268.4V253.2z"/>
</g>
<g>
	<path d="M279.6,262.5h73.4v68.9h-73.4V262.5z"/>
	<path d="M385.7,262.7h73.4v68.9h-73.4L385.7,262.7z"/>
	<path d="M492,262.8h73.4v68.9H492V262.8z"/>
	<path d="M574.4,2.3l47.3,0.4v70.9h-46.9L574.4,2.3z"/>
	<path d="M220,2.8h47.6l0.2,70.8H220L220,2.8z"/>
</g>
</svg>
