<?xml version="1.0" encoding="utf-8"?>
<!-- Generator: Adobe Illustrator 18.0.0, SVG Export Plug-In . SVG Version: 6.00 Build 0)  -->
<!DOCTYPE svg PUBLIC "-//W3C//DTD SVG 1.1//EN" "http://www.w3.org/Graphics/SVG/1.1/DTD/svg11.dtd">
<svg version="1.1" id="Livello_1" xmlns="http://www.w3.org/2000/svg" xmlns:xlink="http://www.w3.org/1999/xlink" x="0px" y="0px"
	 viewBox="0 0 841.9 595.3" enable-background="new 0 0 841.9 595.3" xml:space="preserve">
<g>
	<path d="M157.1,592.8h537.2c14.8,0,26.6-11.8,26.6-26.6V29.1c0-14.8-11.8-26.6-26.6-26.6H157.1c-14.8,0-26.6,11.8-26.6,26.6v537.2
		C130.6,581,142.4,592.8,157.1,592.8z M610.9,51.2c18.4,0,33.2,14.8,33.2,33.2s-14.8,33.2-33.2,33.2c-18.4,0-33.2-14.8-33.2-33.2
		S592.5,51.2,610.9,51.2z M485.5,51.2c18.4,0,33.2,14.8,33.2,33.2s-14.8,33.2-33.2,33.2s-33.2-14.8-33.2-33.2S467,51.2,485.5,51.2z
		 M183.7,165.6h484.8v374.1H183.7V165.6z"/>
	<g>
		<path d="M424.2,358.9v-9.6h-20.7v9.6l8.1-4.4c-5.9-11.1-14.8-25.8-14.8-25.8l-8.1-14l-8.1,14c0,0-8.9,15.5-14.8,25.8l8.1,4.4v-9.6
			h-99.6c-9.6,0-17.7,8.1-17.7,17.7v106.3c0,10.3,8.1,17.7,17.7,17.7h149c9.6,0,17.7-8.1,17.7-17.7V367.7c0-10.3-8.1-17.7-17.7-17.7
			v8.9v9.6v-0.7h-0.7l0.7,0.7v-0.7h-0.7V474h0.7v-0.7l-0.7,0.7h0.7v-0.7h-149v0.7h0.7l-0.7-0.7v0.7h0.7V367.7h-0.7v0.7l0.7-0.7h-0.7
			v0.7h104.8l3-4.4c5.9-10.3,14.8-25.8,14.8-25.8l-8.1-5.2l-8.1,4.4c0,0,8.9,14.8,14.8,25.8l3,4.4h25.8L424.2,358.9L424.2,358.9z"/>
		<rect x="295.8" y="400.2" width="108.5" height="18.4"/>
		<rect x="296.6" y="434.9" width="64.9" height="18.4"/>
	</g>
	<g>
		<path d="M479.6,334.5v7.4h17v-7.4l-6.6,3.7c5.2,8.9,12.5,21.4,12.5,21.4l6.6,11.8l6.6-11.8c0,0,7.4-12.5,12.5-21.4l-6.6-3.7v7.4
			h82.6c8.1,0,14.8-6.6,14.8-14.8v-88.5c0-8.1-6.6-14.8-14.8-14.8H479.6c-8.1,0-14.8,6.6-14.8,14.8v88.5c0,8.1,6.6,14.8,14.8,14.8
			V334.5v-7.4v0.7h0.7l-0.7-0.7v0.7h0.7v-88.5h-0.7v0.7l0.7-0.7h-0.7v0.7h124.7v-0.7h-0.7l0.7,0.7v-0.7h-0.7v88.5h0.7v-0.7l-0.7,0.7
			h0.7v-0.7h-87.8l-2.2,3.7c-5.2,8.9-12.5,21.4-12.5,21.4l6.6,3.7l6.6-3.7c0,0-7.4-12.5-12.5-21.4l-2.2-3.7h-21.4v7.4H479.6z"/>
		<rect x="495.8" y="284.4" width="90.8" height="15.5"/>
		<rect x="531.2" y="256.3" width="54.6" height="15.5"/>
	</g>
</g>
</svg>
