<?xml version="1.0" encoding="utf-8"?>
<!-- Generator: Adobe Illustrator 18.0.0, SVG Export Plug-In . SVG Version: 6.00 Build 0)  -->
<!DOCTYPE svg PUBLIC "-//W3C//DTD SVG 1.1//EN" "http://www.w3.org/Graphics/SVG/1.1/DTD/svg11.dtd">
<svg version="1.1" id="Livello_1" xmlns="http://www.w3.org/2000/svg" xmlns:xlink="http://www.w3.org/1999/xlink" x="0px" y="0px"
	 viewBox="0 0 841.9 595.3" enable-background="new 0 0 841.9 595.3" xml:space="preserve">
<g>
	<g>
		<path d="M819.7,160.2c-4.4-3.3-9.8-7.6-16.4-14.2c-34.9-33.8-203.9-22.9-246.4-18.5C426.1,62,418.4,62,287.6,127.4
			c-42.5-3.3-211.5-15.3-246.4,18.5c-6.5,6.5-12,10.9-16.4,14.2C1.9,179.8,3,187.4,15,226.7l44.7,191.9c0,1.1,1.1,3.3,2.2,4.4
			c5.5,7.6,60,74.1,359.8,75.2c299.9-1.1,354.4-67.6,359.8-75.2c1.1-1.1,1.1-3.3,2.2-4.4l43.6-186.5l2.2-5.5
			C840.4,187.4,842.6,179.8,819.7,160.2z M715,150.3c28.4,8.7,61.1,24,63.2,40.3c2.2,10.9-12,21.8-24,28.4
			c-7.6,1.1-43.6,7.6-96,13.1c-17.4-30.5-55.6-61.1-81.8-79.6C621.3,149.2,673.6,147.1,715,150.3z M548.2,152.5
			C549.3,152.5,549.3,152.5,548.2,152.5c20.7,13.1,69.8,46.9,92.7,81.8c-60,6.5-138.5,10.9-219.2,8.7c-80.7,3.3-159.2-2.2-219.2-8.7
			c22.9-33.8,70.9-66.5,90.5-80.7c1.1,0,2.2,0,3.3-1.1C421.7,88.2,421.7,88.2,548.2,152.5z M266.9,151.4
			c-26.2,18.5-64.3,49.1-81.8,79.6c-51.2-5.5-87.2-12-94.9-13.1c-12-7.6-25.1-18.5-24-28.4c2.2-15.3,33.8-30.5,63.2-40.3
			C170.9,147.1,223.3,149.2,266.9,151.4z M804.5,219l-44.7,189.7c-9.8,9.8-76.3,61.1-336.9,62.2c-261.7-1.1-327.1-53.4-336.9-62.2
			L43.3,224.5l-2.2-5.5c-4.4-15.3-7.6-26.2-7.6-30.5c0-1.1,3.3-4.4,8.7-8.7c4.4-4.4,9.8-8.7,17.4-15.3c3.3-3.3,8.7-5.5,16.4-7.6
			c-13.1,8.7-22.9,18.5-24,30.5c-2.2,15.3,8.7,30.5,32.7,44.7c1.1,0,2.2,1.1,2.2,1.1c1.1,0,162.5,29.4,335.9,24
			c16.4,1.1,32.7,1.1,48,1.1c153.7,0,286.8-24,287.9-25.1c1.1,0,2.2,0,2.2-1.1c24-14.2,34.9-29.4,32.7-44.7c-2.2-12-12-21.8-24-30.5
			c7.6,2.2,13.1,4.4,16.4,7.6c7.6,6.5,13.1,12,17.4,15.3c5.5,4.4,8.7,7.6,8.7,8.7C812.1,192.9,808.8,203.8,804.5,219z"/>
		<path d="M394.5,321.5c3.3,0,5.5-2.2,5.5-5.5c0-12,9.8-20.7,20.7-20.7c10.9,0,20.7,9.8,20.7,20.7c0,3.3,2.2,5.5,5.5,5.5
			s5.5-2.2,5.5-5.5c0-17.4-14.2-30.5-30.5-30.5c-16.4,0-30.5,14.2-30.5,30.5C390.1,319.4,392.3,321.5,394.5,321.5z"/>
		<path d="M499.1,390.2l-16.4,9.8c-1.1,1.1-2.2,2.2-2.2,4.4c0,2.2,1.1,3.3,2.2,4.4l0,0c-13.1,12-30.5,19.6-46.9,22.9
			c-1.1,0-2.2-1.1-2.2-2.2v-65.4h22.9c3.3,0,5.5-2.2,5.5-5.5v-14.2c0-3.3-2.2-5.5-5.5-5.5h-22.9v-25.1c0-1.1,0-1.1,0-2.2
			c-1.1-5.5-5.5-10.9-12-10.9c-6.5,0-10.9,4.4-12,10.9c0,1.1,0,1.1,0,2.2V339h-21.8c-3.3,0-5.5,2.2-5.5,5.5v14.2
			c0,3.3,2.2,5.5,5.5,5.5h21.8v65.4c0,1.1-1.1,2.2-2.2,2.2c-16.4-3.3-31.6-9.8-44.7-21.8h1.1c1.1-1.1,2.2-2.2,2.2-4.4
			c0-2.2-1.1-3.3-2.2-4.4l-16.4-9.8c-2.2-1.1-4.4-1.1-5.5,0c-1.1,1.1-2.2,3.3-2.2,5.5l4.4,18.5c0,1.1,1.1,3.3,3.3,3.3
			c1.1,0,1.1,0,2.2,0c1.1,0,2.2,0,3.3-1.1l3.3-2.2c19.6,18.5,43.6,27.3,68.7,27.3c4.4,0,8.7,0,13.1-1.1l0,0l0,0
			c19.6-3.3,39.3-12,55.6-27.3l3.3,2.2c1.1,1.1,2.2,1.1,3.3,1.1c1.1,0,1.1,0,2.2,0c1.1-1.1,2.2-2.2,3.3-3.3l4.4-18.5
			c0-2.2,0-4.4-2.2-5.5C503.5,389.1,501.3,389.1,499.1,390.2z M451.2,348.8v4.4h-17.4v-4.4H451.2z M422.8,353.2h-5.5v-4.4h5.5V353.2
			z M418.4,313.9L418.4,313.9c0-3.3,5.5-3.3,5.5,0l0,0V339h-5.5V313.9z M391.2,353.2v-4.4h17.4v4.4H391.2z M417.4,431.7
			c0-1.1,1.1-2.2,1.1-2.2s0,0,0-1.1V363h5.5v66.5c0,0,0,0,0,1.1c0,1.1,0,2.2,1.1,2.2C421.7,431.7,419.5,431.7,417.4,431.7z"/>
		<path d="M97.9,174.3c0,0-30.5,15.3,0,26.2c30.5,10.9,77.4,10.9,77.4,10.9l55.6-48C232,163.4,136,151.4,97.9,174.3z"/>
		<path d="M669.2,211.4c0,0,48,0,77.4-10.9c29.4-10.9,0-26.2,0-26.2c-38.2-22.9-133-10.9-133-10.9L669.2,211.4z"/>
	</g>
</g>
</svg>
