<?xml version="1.0" encoding="utf-8"?>
<!-- Generator: Adobe Illustrator 18.0.0, SVG Export Plug-In . SVG Version: 6.00 Build 0)  -->
<!DOCTYPE svg PUBLIC "-//W3C//DTD SVG 1.1//EN" "http://www.w3.org/Graphics/SVG/1.1/DTD/svg11.dtd">
<svg version="1.1" id="Livello_1" xmlns="http://www.w3.org/2000/svg" xmlns:xlink="http://www.w3.org/1999/xlink" x="0px" y="0px"
	 viewBox="0 0 841.9 595.3" enable-background="new 0 0 841.9 595.3" xml:space="preserve">
<g>
	<g>
		<path fill="#1D1D1B" d="M766.7,227.5c40.4-68.6,13.1-117,4-133.2c-8.1-15.1-25.2-25.2-32.3-29.3c-12.1-22.2-59.5-26.2-71.6-27.2
			c-13.1-4-43.4-9.1-71.6-14.1c-25.2-4-51.5-9.1-59.5-12.1c-17.2-6.1-108-6.1-126.1-5c-1,0-1,0-2,0c-14.1,4-54.5,11.1-76.7,1
			c-22.2-11.1-49.4-3-71.6,2c-9.1,2-19.2,5-23.2,5c-19.2-1-85.8,23.2-100.9,28.3c-43.4,9.1-84.8,75.7-86.8,78.7c0,0,0,1-1,1
			c-14.1,35.3-6.1,56.5,6.1,74.7c7.1,10.1,8.1,47.4,8.1,68.6c0,3,2,6.1,5,8.1l28.3,14.1v4c-19.2,16.1-16.1,40.4-10.1,53.5l-3,23.2
			c0,3,1,6.1,4,8.1l22.2,14.1c-16.1,83.7,25.2,129.1,27.2,131.2c48.4,53.5,159.4,62.6,235.1,62.6c41.4,0,72.6-3,75.7-3
			c146.3,1,234.1-14.1,268.4-46.4c39.3-37.3,32.3-129.1,29.3-154.4l15.1-7.1c4-2,6.1-6.1,4-10.1c0,0-7.1-24.2-2-44.4
			c3-14.1-1-26.2-6.1-35.3c1,0,1,0,2-1C760.6,280,768.7,275.9,766.7,227.5z M756.6,102.4c2,3,5,8.1,7.1,14.1l-15.1-6.1
			c-6.1-6.1-10.1-18.2-12.1-28.3C743.5,87.3,751.6,94.3,756.6,102.4z M141.2,60h1c30.3-11.1,82.7-29.3,93.8-28.3
			c7.1,1,17.2-2,29.3-5c19.2-5,43.4-11.1,60.5-4c30.3,14.1,79.7,3,87.8,1c40.4,0,108,1,119.1,5c9.1,3,33.3,7.1,62.6,12.1
			c27.2,5,58.5,10.1,70.6,14.1c1,0,1,0,2,0c21.2,1,55.5,8.1,59.5,19.2c0,1,1,1,1,2c1,7.1,3,17.2,6.1,26.2c-4-3-8.1-6.1-11.1-9.1
			c-9.1-8.1-59.5-19.2-74.7-22.2C640.6,60,609.3,59,597.2,59c-15.1-16.1-59.5-13.1-68.6-13.1c-28.3-11.1-55.5-9.1-85.8-6.1
			c-20.2,2-43.4,4-69.6,2c-62.6-4-111,15.1-120.1,19.2c-10.1-2-16.1,1-23.2,4c-6.1,3-13.1,6.1-24.2,7.1c7.1-8.1,10.1-18.2,10.1-25.2
			c0-3-2-5-5-5l0,0c-3,0-5,2-5,5c0,1,0,19.2-17.2,25.2c-2,0-3,0-5,0c-33.3-4-72.6,15.1-93.8,26.2C102.8,82.2,123,63.1,141.2,60z
			 M678.9,506c-28.3,26.2-106.9,39.3-235.1,38.3c-2,0-207.8,20.2-272.4-50.4c0,0-35.3-39.3-21.2-111
			c39.3,25.2,119.1,55.5,276.5,55.5c0,0,5,0,13.1,0c41.4,0,166.5-6.1,259.3-76.7C701.1,391,709.2,477.7,678.9,506z M426.7,430.3
			c-229,0-290.6-66.6-301.7-80.7c4-5,7.1-12.1,9.1-22.2c20.2,20.2,90.8,68.6,303.7,68.6c0,0,2,0,7.1,0c32.3,0,172.5-5,271.4-87.8
			c0,5,1,9.1,1,12.1c1,4,2,7.1,3,10.1c0,0,0,0-1,0C612.3,440.4,428.7,430.3,426.7,430.3z M112.9,292.1L112.9,292.1v-3c2,1,3,2,5,4
			c7.1,8.1,10.1,22.2,8.1,31.3c-3,16.1-8.1,21.2-11.1,22.2c3-5,6.1-12.1,7.1-21.2C125,313.3,121,299.2,112.9,292.1z M726.3,320.3
			c-2-12.1-1-21.2,3-26.2c1-1,2-1,3-2c-5,9.1-3,21.2-2,29.3c2,9.1,4,15.1,7.1,21.2C735.4,341.5,729.4,336.5,726.3,320.3z
			 M744.5,313.3c-1,6.1-2,12.1-2,18.2c-1-3-2-7.1-3-11.1c-2-12.1-1-21.2,3-25.2C744.5,300.2,746.5,306.2,744.5,313.3z M733.4,282
			L733.4,282C733.4,283,733.4,283,733.4,282L733.4,282z M437.8,386.9c-213.9,0-281.5-50.4-297.6-66.6c49.4,16.1,310.8,92.8,560-10.1
			C591.1,393,439.8,386.9,437.8,386.9z M108.9,303.2C108.9,303.2,108.9,302.2,108.9,303.2c4,5,6.1,13.1,4,21.2
			c-3,14.1-7.1,21.2-11.1,22.2v-2c0-2,0-3-1-5C100.8,339.5,90.7,316.3,108.9,303.2z M730.4,367.8c-3,2-5,5-5,9.1
			c0,1,15.1,110-23.2,146.3c-20.2,20.2-81.7,43.4-257.3,41.4c-2,0-228,22.2-297.6-54.5c0,0-39.3-42.4-22.2-122.1c1-3-1-7.1-4-9.1
			l-22.2-14.1l1-9.1c1,0,1,1,2,1c1,0,1,0,2,0c0,0,1,0,1-1c2,1,4,2,6.1,2c2,0,4,0,5-1c3,5,11.1,13.1,24.2,23.2v1
			C123,459.6,161.3,500.9,163.4,502c43.4,47.4,143.3,56.5,210.9,56.5c37.3,0,65.6-3,68.6-3c130.2,1,211.9-13.1,241.1-41.4
			c37.3-36.3,25.2-139.2,23.2-157.4c6.1-5,11.1-10.1,17.2-15.1c3,5,6.1,8.1,10.1,10.1c2,1,4,1,6.1,1c1,0,2,0,3-1c0,3,1,6.1,1,8.1
			L730.4,367.8z M751.6,221.5c-1,1-1,3-1,5c1,17.2,0,35.3-2,41.4c-3,1-6.1,0-7.1-1c-4-2-8.1,0-11.1,3c-1,2-1,4-1,6.1
			c-227,58.5-527.7,21.2-605.4,9.1c-3-4-7.1-6.1-12.1-7.1c-1-2-2-3-4-4l-28.3-14.1c0-16.1-1-57.5-11.1-72.6
			c-9.1-14.1-16.1-29.3-5-58.5c2-3,5-8.1,8.1-12.1c1,0,2,0,3-1c1,0,58.5-39.3,102.9-34.3c2,0,4,0,7.1,1l0,0l0,0
			c23.2,1,35.3-4,44.4-8.1c7.1-3,12.1-5,19.2-4c1,0,2,0,3,0c0,0,52.5-23.2,117-19.2c27.2,2,50.4,0,71.6-2c30.3-3,56.5-5,82.7,6.1
			c1,0,1,0,2,0c14.1-1,53.5-2,62.6,11.1c1,1,3,2,4,2c23.2,0,44.4,4,46.4,8.1c1,1,2,3,3,3c26.2,5,66.6,15.1,72.6,20.2
			c9.1,8.1,21.2,16.1,21.2,17.2c0,0,1,0,1,1l7.1,2l0,0l23.2,9.1C773.8,149.8,774.8,181.1,751.6,221.5z"/>
		<path fill="#1D1D1B" d="M736.4,161.9c-80.7,16.1-141.3-39.3-143.3-46.4c-2-13.1-31.3-21.2-40.4-24.2c-2-1-5,1-6.1,3
			c-1,2,1,5,3,6.1c17.2,5,32.3,12.1,33.3,16.1c1,6.1,12.1,17.2,27.2,27.2c14.1,10.1,49.4,29.3,94.8,29.3c10.1,0,21.2-1,32.3-3
			c2-1,4-3,4-5C741.5,162.9,738.5,160.9,736.4,161.9z"/>
		<path fill="#1D1D1B" d="M395.4,145.8c3,0,5-2,5-5c0-11.1,9.1-19.2,19.2-19.2c10.1,0,19.2,9.1,19.2,19.2c0,3,2,5,5,5c3,0,5-2,5-5
			c0-16.1-13.1-28.3-28.3-28.3s-28.3,13.1-28.3,28.3C390.4,143.8,392.4,145.8,395.4,145.8z"/>
		<path fill="#1D1D1B" d="M492.3,209.4l-15.1,9.1c-1,1-2,2-2,4c0,2,1,3,2,4l0,0c-12.1,11.1-28.3,18.2-43.4,21.2c-1,0-2-1-2-2v-60.5
			h21.2c3,0,5-2,5-5V167c0-3-2-5-5-5h-21.2v-23.2c0-1,0-1,0-2c-1-5-5-10.1-11.1-10.1s-10.1,4-11.1,10.1c0,1,0,1,0,2v23.2h-20.2
			c-3,0-5,2-5,5v13.1c0,3,2,5,5,5h20.2v60.5c0,1-1,2-2,2c-15.1-3-29.3-9.1-41.4-20.2h1c1-1,2-2,2-4s-1-3-2-4l-15.1-9.1c-2-1-4-1-5,0
			c-1,1-2,3-2,5l4,17.2c0,1,1,3,3,3c1,0,1,0,2,0c1,0,2,0,3-1l3-2c18.2,17.2,40.4,25.2,63.6,25.2c4,0,8.1,0,13.1-1l0,0l0,0
			c19.2-3,36.3-11.1,51.5-25.2l3,2c1,1,2,1,3,1c1,0,1,0,2,0c1-1,2-2,3-3l4-17.2c0-2,0-4-2-5C495.3,208.4,493.3,208.4,492.3,209.4z
			 M446.9,171v4h-16.1v-4H446.9z M421.6,175.1h-5v-4h5V175.1z M416.6,138.7L416.6,138.7c0-3,5-3,5,0l0,0v23.2h-5V138.7z
			 M392.4,175.1v-4h15.1v4H392.4z M416.6,247.7c0-1,1-2,1-2s0,0,0-1v-60.5h5v61.5c0,0,0,0,0,1s0,2,1,2
			C420.6,247.7,418.6,247.7,416.6,247.7z"/>
		<path fill="#1D1D1B" d="M158.3,403.1c-14.1,156.4,212.9,132.2,212.9,132.2l-3-80.7C236,456.6,158.3,403.1,158.3,403.1z"/>
	</g>
</g>
</svg>
