<?xml version="1.0" encoding="utf-8"?>
<!-- Generator: Adobe Illustrator 18.0.0, SVG Export Plug-In . SVG Version: 6.00 Build 0)  -->
<!DOCTYPE svg PUBLIC "-//W3C//DTD SVG 1.1//EN" "http://www.w3.org/Graphics/SVG/1.1/DTD/svg11.dtd">
<svg version="1.1" id="Livello_1" xmlns:sketch="http://www.bohemiancoding.com/sketch/ns"
	 xmlns="http://www.w3.org/2000/svg" xmlns:xlink="http://www.w3.org/1999/xlink" x="0px" y="0px" viewBox="0 0 841.9 595.3"
	 enable-background="new 0 0 841.9 595.3" xml:space="preserve">
<title>Artboard 1</title>
<desc>Created with Sketch.</desc>
<path sketch:type="MSShapeGroup" d="M299,158.6h220.7V175H299V158.6z"/>
<path sketch:type="MSShapeGroup" d="M299,204.5h220.7v16.4H299V204.5z"/>
<path sketch:type="MSShapeGroup" d="M299,250.4h220.7v16.4H299V250.4z"/>
<path sketch:type="MSShapeGroup" d="M299,296.2h220.7v16.4H299V296.2z"/>
<path sketch:type="MSShapeGroup" d="M299,342.1h220.7v16.4H299V342.1z"/>
<path sketch:type="MSShapeGroup" d="M299,388h220.7v16.4H299V388z"/>
<path sketch:type="MSShapeGroup" d="M299,433.9h173.9v16.4H299V433.9z"/>
<path sketch:type="MSShapeGroup" d="M319,112.7h200.6v16.4H319V112.7z"/>
<path sketch:type="MSShapeGroup" d="M600.5,49.9V13.8H213.8v61.2c-28.5,0.5-52,23.8-52,52.4c0,28.9,25.8,52.4,52,52.4v49.3
	c-28.5,0.5-52,23.7-52,52.4c0,28.9,25.8,52.4,52,52.4v49.3c-28.5,0.5-52,23.7-52,52.4c0,28.9,25.8,52.4,52,52.4v63.4h36.1v36h386.7
	V49.9H600.5L600.5,49.9z M213.2,160.2c-18.8,0-33.4-15.2-33.4-34c0-18.8,14.8-34,33.6-34c0.4,0,0.4,0.1,0.4,0.1v67.8
	C213.8,160.1,213.6,160.2,213.2,160.2L213.2,160.2z M213.2,314.2c-18.8,0-33.4-15.2-33.4-34c0-18.8,14.8-34,33.6-34
	c0.4,0,0.4,0,0.4,0.1v67.8C213.8,314.2,213.6,314.2,213.2,314.2L213.2,314.2z M213.8,468.2c0,0-0.2,0.1-0.6,0.1
	c-18.8,0-33.4-15.2-33.4-34c0-18.8,14.8-34,33.6-34c0.4,0,0.4,0,0.4,0.1L213.8,468.2L213.8,468.2L213.8,468.2z M233.4,531.7V407.5
	c9.8,6.2,13.1,15.9,13.1,26.8c0,0.7,0,1.4-0.1,2.1h19.7v-0.8c0-22.2-13.4-41.2-32.8-48.8V253.5c9.8,6.2,13.1,15.9,13.1,26.8
	c0,0.7,0,1.4-0.1,2.1h19.7v-0.8c0-22.2-13.4-41.2-32.8-48.8V99.4c9.8,6.2,13.1,15.9,13.1,26.8c0,0.7-0.1,1.4-0.1,2.1h19.7v-0.8
	c0-22.2-13.4-41.2-32.8-48.8V33.5h347.4v498.2H233.4L233.4,531.7z M616.9,567.7H269.5v-16.4h331V69.6h16.4V567.7L616.9,567.7z"/>
</svg>
