<?xml version="1.0" encoding="utf-8"?>
<!-- Generator: Adobe Illustrator 18.0.0, SVG Export Plug-In . SVG Version: 6.00 Build 0)  -->
<!DOCTYPE svg PUBLIC "-//W3C//DTD SVG 1.1//EN" "http://www.w3.org/Graphics/SVG/1.1/DTD/svg11.dtd">
<svg version="1.1" id="Livello_1" xmlns="http://www.w3.org/2000/svg" xmlns:xlink="http://www.w3.org/1999/xlink" x="0px" y="0px"
	 viewBox="0 0 841.9 595.3" enable-background="new 0 0 841.9 595.3" xml:space="preserve">
<path d="M835.6,346.1l-70.8-70.8c-5.2-5.2-30.7-8.5-42.8-5.9L565.9,113.3l0.1-0.1c3.6-3.6,3.5-9.3,0-12.9l-7.7-7.7
	c-3.6-3.5-9.3-3.6-12.9,0l-21.3,21.3c-3.5,3.5-3.5,9.3,0,12.9l7.7,7.7c3.5,3.6,9.3,3.6,12.9,0l0.1-0.1l89.2,89.2
	c-42.3-14.5-148.6-48.7-213.1-48.7c-64.4,0-170.8,34.2-213,48.7l89.2-89.2l0.1,0.1c3.5,3.5,9.3,3.5,12.9,0l7.7-7.7
	c3.6-3.6,3.6-9.3,0-12.9l-21.3-21.3c-3.6-3.6-9.4-3.5-12.9,0l-7.7,7.7c-3.6,3.6-3.6,9.3,0,12.9l0.1,0.1L119.9,269.4
	c-12.1-2.6-37.6,0.7-42.8,5.9L6.3,346.1c-6.2,6.2-6.2,16.4,0,22.6L41.7,404c6.2,6.2,16.4,6.2,22.6,0l70.8-70.8
	c5.2-5.2,8.6-30.7,5.9-42.8l49.8-49.8c2.7,17.9,12.4,55.2,48.1,87.1c1.9-1.4,3.9-2.4,5.8-4.2c6.4-6.2,11.8-13.2,18.2-20.3
	c2.6,3.5,5.1,7.1,7.8,10.6c7.6,10,16.8,18.3,28.1,23.9c16.8,8.3,33.2,6.7,48.1-3.9c9.7-6.9,18.2-15.5,27.8-23.9
	c1.7,2.1,3.9,4.7,6,7.3c8,9.7,17.6,17.5,29.2,22.5c18.5,8,35,3.4,49.1-9.8c7.5-7,14-15.1,21.4-23.2c2.5,3.5,4.7,7.5,7.9,10.5
	c7.5,7.3,14.7,15.3,23.4,20.9c14.3,9.2,29,8,41.8-3.3c8.1-7.2,14.6-16.2,21.8-24.4c1.7-2,3.2-4.2,5.2-6.8c3.4,5.7,6.1,11,9.5,15.8
	c2.9,4.2,6.2,7.8,9.7,11.1c38.5-32.5,48.8-71.5,51.5-90l49.8,49.8c-2.6,12.1,0.7,37.6,5.9,42.8l70.7,70.8c6.3,6.2,16.4,6.2,22.6,0
	l35.4-35.4C841.8,362.4,841.8,352.3,835.6,346.1z"/>
<path d="M653.2,345.7c-7.7,5.3-15.9,11.1-24.7,13.3c-16.6,4-27.7-6.2-36.5-19c-3.4-4.8-6.1-10.1-9.5-15.8c-2,2.6-3.5,4.8-5.2,6.8
	c-7.2,8.2-13.6,17.2-21.8,24.4c-12.8,11.3-27.5,12.6-41.8,3.3c-8.7-5.6-15.9-13.6-23.4-20.9c-3.2-3-5.3-7-7.9-10.5
	c-7.4,8.1-13.8,16.2-21.4,23.2c-14.1,13.2-30.6,17.8-49.1,9.8c-11.6-5-21.2-12.8-29.2-22.5c-2.2-2.6-4.3-5.3-6-7.3
	c-9.6,8.4-18.1,17-27.8,23.9c-14.9,10.6-31.3,12.2-48.1,3.9c-11.3-5.6-20.5-13.9-28.1-23.9c-2.7-3.5-5.2-7.1-7.8-10.6
	c-6.3,7.1-11.8,14.2-18.2,20.3c-15.8,15.2-33.2,16.3-51,3.4c-5.3-3.9-10-8.6-15.4-13.2c-5.7,4.3-11.6,8.8-17.3,13.1
	c10.1,14.2,28.7,26.9,44.2,30.5c22.5,5.2,40.8-3.3,56.9-18.2c15.8,15.2,33.3,25.7,55.1,26.6c22,0.9,39.9-8.9,55.8-22.8
	c35.7,30.9,73.4,32,106.4-0.2c14.3,13.4,29.9,23.6,49.9,24.1c20.3,0.5,35.7-9.8,49-23.2c6.2,4.4,11.6,9,17.6,12.5
	c29.2,16.3,63.1-0.1,84.7-28.9c-5.4-4.7-10.9-9.5-17.2-14.9C661.4,337.1,658,342.4,653.2,345.7z"/>
</svg>
