<?xml version="1.0" encoding="utf-8"?>
<!-- Generator: Adobe Illustrator 18.0.0, SVG Export Plug-In . SVG Version: 6.00 Build 0)  -->
<!DOCTYPE svg PUBLIC "-//W3C//DTD SVG 1.1//EN" "http://www.w3.org/Graphics/SVG/1.1/DTD/svg11.dtd">
<svg version="1.1" id="Livello_1" xmlns="http://www.w3.org/2000/svg" xmlns:xlink="http://www.w3.org/1999/xlink" x="0px" y="0px"
	 viewBox="0 0 841.9 595.3" enable-background="new 0 0 841.9 595.3" xml:space="preserve">
<g>
	<path d="M678.7,3.3H165.4c-20.7,0-37.7,17-37.7,37.7v16.2v497.1c0,20.7,17,37.7,37.7,37.7h513.3c20.7,0,37.7-17,37.7-37.7V57.2V41
		C716.3,20.3,699.4,3.3,678.7,3.3z M230.9,47.8h442.8c5.9,0,10.8,4.8,10.8,10.8s-4.8,10.8-10.8,10.8H230.9
		c-5.9,0-10.8-4.8-10.8-10.8S224.9,47.8,230.9,47.8z M185.9,40.1c10.2,0,18.5,8.3,18.5,18.5s-8.3,18.5-18.5,18.5
		c-10.2,0-18.5-8.3-18.5-18.5C167.4,48.4,175.7,40.1,185.9,40.1z M678.7,559.2H165.4c-2.6,0-5-2.3-5-5V108.5h523.2v445.8
		C683.6,556.9,681.3,559.2,678.7,559.2z"/>
</g>
<g>
	<polygon points="222.6,204.9 231.3,222.4 250.5,225.2 236.6,238.8 239.9,258 222.6,248.9 205.4,258 208.7,238.8 194.8,225.2 
		214,222.4 	"/>
</g>
<g>
	<polygon points="288.8,204.9 297.4,222.4 316.7,225.2 302.7,238.8 306,258 288.8,248.9 271.6,258 274.9,238.8 260.9,225.2 
		280.2,222.4 	"/>
</g>
<g>
	<polygon points="355,204.9 363.6,222.4 382.8,225.2 368.9,238.8 372.2,258 355,248.9 337.7,258 341,238.8 327.1,225.2 346.3,222.4 
			"/>
</g>
<g>
	<polygon points="421.1,204.9 429.7,222.4 449,225.2 435.1,238.8 438.4,258 421.1,248.9 403.9,258 407.2,238.8 393.2,225.2 
		412.5,222.4 	"/>
</g>
<g>
	<path d="M487.3,216.1l4.2,8.5l1.2,2.3l2.6,0.4l9.4,1.4l-6.8,6.6l-1.9,1.8l0.4,2.6l1.6,9.3l-8.4-4.4l-2.3-1.2l-2.3,1.2l-8.4,4.4
		l1.6-9.3l0.4-2.6l-1.9-1.8l-6.8-6.6l9.4-1.4l2.6-0.4l1.2-2.3L487.3,216.1 M487.3,204.9l-8.6,17.5l-19.3,2.8l13.9,13.6l-3.3,19.2
		l17.2-9.1l17.2,9.1l-3.3-19.2l13.9-13.6l-19.3-2.8L487.3,204.9L487.3,204.9z"/>
</g>
<g>
	<path d="M638.1,321.9H338.7c-5.4,0-9.8-4.4-9.8-9.8s4.4-9.8,9.8-9.8h299.3c5.4,0,9.8,4.4,9.8,9.8S643.5,321.9,638.1,321.9z"/>
</g>
<g>
	<path d="M638.1,374.3H338.7c-5.4,0-9.8-4.4-9.8-9.8s4.4-9.8,9.8-9.8h299.3c5.4,0,9.8,4.4,9.8,9.8S643.5,374.3,638.1,374.3z"/>
</g>
<g>
	<path d="M638.1,426.7H206c-5.4,0-9.8-4.4-9.8-9.8c0-5.4,4.4-9.8,9.8-9.8h432.1c5.4,0,9.8,4.4,9.8,9.8
		C647.9,422.3,643.5,426.7,638.1,426.7z"/>
</g>
<g>
	<path d="M638.1,479.1H206c-5.4,0-9.8-4.4-9.8-9.8s4.4-9.8,9.8-9.8h432.1c5.4,0,9.8,4.4,9.8,9.8S643.5,479.1,638.1,479.1z"/>
</g>
<g>
	<g>
		<path d="M248.5,333.2c10.9,0,19.7-8.8,19.7-19.7s-8.8-19.7-19.7-19.7c-10.9,0-19.7,8.8-19.7,19.7
			C228.8,324.3,237.6,333.2,248.5,333.2"/>
	</g>
</g>
<g>
	<g>
		<path d="M296.4,376.3v-19.1c0-14.3-11.6-17.8-25.8-17.8h-44.3c-14.2,0-25.8,3.6-25.8,17.8v19.1H296.4z"/>
	</g>
</g>
</svg>
