<?xml version="1.0" encoding="utf-8"?>
<!-- Generator: Adobe Illustrator 18.0.0, SVG Export Plug-In . SVG Version: 6.00 Build 0)  -->
<!DOCTYPE svg PUBLIC "-//W3C//DTD SVG 1.1//EN" "http://www.w3.org/Graphics/SVG/1.1/DTD/svg11.dtd">
<svg version="1.1" id="Livello_1" xmlns="http://www.w3.org/2000/svg" xmlns:xlink="http://www.w3.org/1999/xlink" x="0px" y="0px"
	 viewBox="0 0 841.9 595.3" enable-background="new 0 0 841.9 595.3" xml:space="preserve">
<path d="M660.8,308.2c-12.1-12.6-25.1-18.2-28.5-19.5c-34.6-18.4-30.2-74-20.4-117.6c11.3-50.2,32.4-96.3,32.6-96.7
	c2.1-4.6,0.3-10.2-4.1-12.6L544.5,9c-4.6-2.5-10.3-1-13,3.5c-0.3,0.4-20.5,33.9-46.1,78.8c0,0,0,0,0,0.1
	c-4.7,8.1-37.1,10.9-63.3,8.2c-0.4,0-0.7-0.1-1.1-0.1c-0.3,0-0.7,0-1,0.1c-26.2,2.7-58.7-0.1-63.3-8.2c0,0,0,0,0-0.1
	c-25.6-44.9-45.8-78.4-46.1-78.8c-2.7-4.5-8.5-6-13-3.5l-95.8,52.8c-4.5,2.5-6.3,8-4.2,12.6c0.2,0.5,21.3,46.6,32.6,96.7
	c9.8,43.5,14.2,99.2-20.4,117.6c-3.4,1.3-16.4,6.8-28.5,19.5c-12.6,13.1-26.7,36.7-22.7,74.5v195.1c0,5.4,4.4,9.7,9.7,9.7h234.7
	c5.4,0,9.7-4.4,9.7-9.7v-26.8h16.8v26.8c0,5.4,4.4,9.7,9.7,9.7h234.7c5.4,0,9.7-4.4,9.7-9.7V382.7
	C687.5,344.8,673.4,321.3,660.8,308.2z M388.2,450.3v-29.2H454v29.2H388.2z M177.9,450.3v-29.2h190.8v29.2H177.9z M473.5,421.1H664
	v29.2H473.5V421.1z M543.3,30.6l79.8,44c-6.7,15.9-21.2,52.2-30.2,92c-7,31.2-9.2,57.9-6.4,79.6c3.8,29,16.3,49.2,37.3,60.1
	c0.4,0.2,0.9,0.4,1.3,0.6c1.9,0.7,45.3,16.6,39,74.2c0,0.4-0.1,0.7-0.1,1.1v19.5H448.8v-151c0-0.5,0-1.1-0.1-1.6
	c-0.1-0.4-6-40.3,28.2-102.5C505,95.2,532.5,48.7,543.3,30.6z M388.2,119.8c3.8,0.2,7.5,0.3,10.9,0.3c10.5,0,19-0.7,21.8-0.9
	c2.8,0.3,11.3,0.9,21.8,0.9c3.5,0,7.2-0.1,10.9-0.3c6.1-0.3,11.6-0.9,16.6-1.7c-3.5,6.2-7,12.6-10.5,19.1
	c-35.2,64.1-31.4,107.2-30.4,114.2v150.3h-16.8V251.3c0.9-7,4.8-50.1-30.4-114.2c-3.5-6.4-7.1-12.8-10.5-19.1
	C376.6,118.9,382.1,119.5,388.2,119.8z M216.8,306.9c0.5-0.2,0.9-0.3,1.3-0.6c21-10.8,33.5-31,37.3-60.1c2.8-21.7,0.7-48.5-6.4-79.6
	c-9-39.8-23.5-76.2-30.2-92l79.8-44c10.8,18.1,38.3,64.6,66.4,115.9c34.1,62.2,28.2,102.1,28.2,102.5c-0.1,0.5-0.1,1.1-0.1,1.7v151
	H177.9v-19.5c0-0.4,0-0.7-0.1-1.1C171.5,323.4,214.9,307.5,216.8,306.9z M177.9,568v-98.2h215.2V568L177.9,568L177.9,568z
	 M412.6,531.5v-61.6h16.8v61.6H412.6z M448.8,568v-98.2H664V568L448.8,568L448.8,568z"/>
</svg>
