<?xml version="1.0" standalone="no"?>
<!DOCTYPE svg PUBLIC "-//W3C//DTD SVG 20010904//EN"
 "http://www.w3.org/TR/2001/REC-SVG-20010904/DTD/svg10.dtd">
<svg version="1.0" xmlns="http://www.w3.org/2000/svg"
 width="471.000000pt" height="471.000000pt" viewBox="0 0 471.000000 471.000000"
 preserveAspectRatio="xMidYMid meet">
<metadata>
Created by potrace 1.11, written by Peter Selinger 2001-2013
</metadata>
<g transform="translate(0.000000,471.000000) scale(0.100000,-0.100000)"
fill="#000000" stroke="none">
<path d="M1687 4543 c-88 -139 -192 -423 -231 -632 -38 -201 -49 -479 -26
-666 64 -523 318 -1088 810 -1801 l114 -166 23 28 c51 63 286 418 381 577 234
390 404 783 476 1102 114 506 53 1027 -175 1479 l-56 111 -646 3 -647 2 -23
-37z m1275 -335 c19 -51 45 -125 57 -163 19 -64 61 -255 61 -276 0 -5 -308 -9
-725 -9 -399 0 -725 2 -725 4 0 3 9 53 21 112 22 117 54 227 101 347 l31 77
571 0 572 0 36 -92z m138 -760 c0 -113 -41 -391 -71 -485 l-11 -33 -663 0
-664 0 -11 41 c-39 145 -70 347 -70 459 l0 50 745 0 745 0 0 -32z m-180 -807
c0 -19 -74 -180 -161 -352 l-91 -179 -316 2 -315 3 -79 150 c-62 121 -145 296
-175 373 -4 9 113 12 566 12 337 0 571 -4 571 -9z"/>
<path d="M780 835 c-98 -22 -175 -67 -291 -167 -113 -98 -179 -135 -258 -145
l-51 -6 0 -93 0 -94 54 0 c119 0 233 57 381 189 44 39 105 84 135 99 49 24 66
27 160 27 95 0 110 -3 155 -27 28 -15 97 -68 155 -117 156 -135 245 -172 411
-172 178 0 267 41 451 206 32 29 81 65 110 81 49 27 61 29 158 29 94 0 111 -3
160 -27 30 -15 91 -60 135 -99 164 -147 261 -190 427 -190 178 0 262 35 432
184 124 108 169 129 277 135 141 7 168 -6 388 -193 89 -76 192 -118 309 -128
l52 -4 0 97 0 97 -51 6 c-77 9 -146 46 -244 132 -177 154 -255 188 -430 189
-175 1 -262 -36 -430 -184 -49 -44 -115 -92 -145 -107 -49 -25 -66 -28 -150
-28 -122 0 -170 22 -300 135 -173 152 -249 185 -425 185 -175 0 -269 -42 -440
-194 -44 -40 -105 -84 -135 -99 -48 -24 -67 -27 -150 -27 -83 0 -102 3 -150
27 -30 15 -95 63 -145 107 -104 92 -167 133 -251 162 -77 27 -217 34 -304 14z"/>
</g>
</svg>
